<svg xmlns="http://www.w3.org/2000/svg" viewBox="0 0 64 64">
  <rect width="64" height="64" fill="#0A0808"/>
  <rect x="4" y="4" width="56" height="56" fill="none" stroke="#D4912A" stroke-width="4"/>
  <rect x="10" y="10" width="44" height="44" fill="none" stroke="#D4912A" stroke-width="1.5" opacity="0.3"/>
  <!-- RS from IBM Plex Mono Bold, scaled to fit inside inner border -->
  <!-- Original: 52.6w × 36.1h, offset y=15.75. Scale 0.72 to fit ~38px wide, center in 64px -->
  <g transform="translate(13, 8) scale(0.72)" fill="#D4912A">
    <path d="M4.20 51.25L0 51.25L0 16.35L12.70 16.35Q17.55 16.35 20.10 19.00Q22.65 21.65 22.65 26.40Q22.65 30.65 20.45 33.20Q18.25 35.75 14.05 36.15L22.95 51.25L18.25 51.25L9.75 36.35L4.20 36.35L4.20 51.25M12.60 32.80Q15.25 32.80 16.73 31.47Q18.20 30.15 18.20 27.70L18.20 25.10Q18.20 22.65 16.73 21.32Q15.25 20.00 12.60 20.00L4.20 20.00L4.20 32.80L12.60 32.80ZM40.40 51.85Q35.70 51.85 32.70 50.12Q29.70 48.40 27.75 45.70L30.80 43.20Q32.85 45.75 35.13 47.00Q37.40 48.25 40.55 48.25Q44.35 48.25 46.35 46.50Q48.35 44.75 48.35 41.60Q48.35 39.05 46.90 37.62Q45.45 36.20 41.85 35.60L37.95 34.95Q35.40 34.50 33.67 33.60Q31.95 32.70 30.90 31.42Q29.85 30.15 29.40 28.62Q28.95 27.10 28.95 25.45Q28.95 20.65 32.10 18.20Q35.25 15.75 40.60 15.75Q44.80 15.75 47.67 17.15Q50.55 18.55 52.30 21.10L49.35 23.65Q47.90 21.75 45.85 20.55Q43.80 19.35 40.55 19.35Q37 19.35 35.10 20.85Q33.20 22.35 33.20 25.35Q33.20 27.70 34.63 29.17Q36.05 30.65 39.75 31.30L43.50 31.95Q46.05 32.40 47.80 33.30Q49.55 34.20 50.63 35.45Q51.70 36.70 52.15 38.25Q52.60 39.80 52.60 41.50Q52.60 46.35 49.42 49.10Q46.25 51.85 40.40 51.85Z"/>
  </g>
</svg>
